<svg width="17.000000" height="18.000000" viewBox="0 0 17 18" fill="none" xmlns="http://www.w3.org/2000/svg" xmlns:xlink="http://www.w3.org/1999/xlink">
	<desc>
			Created with Pixso.
	</desc>
	<defs/>
	<path id="Vector" d="M15.61 2.12L0.48 2.12C0.3 2.12 0.12 2.19 6.1e-5 2.32C-0.13 2.45 -0.21 2.63 -0.21 2.81C-0.21 2.99 -0.13 3.16 6.1e-5 3.29C0.12 3.42 0.3 3.5 0.48 3.5L1.17 3.5L1.17 15.87C1.17 16.23 1.31 16.58 1.57 16.84C1.83 17.1 2.18 17.25 2.54 17.25L13.54 17.25C13.91 17.25 14.26 17.1 14.52 16.84C14.77 16.58 14.92 16.23 14.92 15.87L14.92 3.5L15.61 3.5C15.79 3.5 15.96 3.42 16.09 3.29C16.22 3.16 16.29 2.99 16.29 2.81C16.29 2.63 16.22 2.45 16.09 2.32C15.96 2.19 15.79 2.12 15.61 2.12ZM13.54 15.87L2.54 15.87L2.54 3.5L13.54 3.5L13.54 15.87ZM3.92 0.06C3.92 -0.12 3.99 -0.3 4.12 -0.43C4.25 -0.56 4.42 -0.63 4.61 -0.63L11.48 -0.63C11.66 -0.63 11.84 -0.56 11.97 -0.43C12.1 -0.3 12.17 -0.12 12.17 0.06C12.17 0.24 12.1 0.41 11.97 0.54C11.84 0.67 11.66 0.75 11.48 0.75L4.61 0.75C4.42 0.75 4.25 0.67 4.12 0.54C3.99 0.41 3.92 0.24 3.92 0.06Z" fill="#3E1671" fill-opacity="1.000000" fill-rule="nonzero"/>
</svg>
