<svg width="17.000000" height="12.000000" viewBox="0 0 17 12" fill="none" xmlns="http://www.w3.org/2000/svg" xmlns:xlink="http://www.w3.org/1999/xlink">
	<desc>
			Created with Pixso.
	</desc>
	<defs/>
	<path id="Vector" d="M16.78 0.67L5.78 11.67C5.72 11.73 5.64 11.78 5.56 11.82C5.47 11.85 5.38 11.87 5.29 11.87C5.2 11.87 5.11 11.85 5.03 11.82C4.95 11.78 4.87 11.73 4.81 11.67L-0.01 6.86C-0.13 6.73 -0.21 6.55 -0.21 6.37C-0.21 6.19 -0.13 6.01 -0.01 5.88C0.12 5.75 0.3 5.68 0.48 5.68C0.66 5.68 0.84 5.75 0.97 5.88L5.29 10.21L15.81 -0.3C15.94 -0.43 16.11 -0.51 16.29 -0.51C16.48 -0.51 16.65 -0.43 16.78 -0.3C16.91 -0.17 16.98 0 16.98 0.18C16.98 0.36 16.91 0.54 16.78 0.67Z" fill="#9E78CF" fill-opacity="1.000000" fill-rule="nonzero"/>
</svg>
